# xmcd
#
# Track frame offsets: 
#        150
#        38018
#        51087
#        64156
#        77042
#        90611
#        104465
#        117778
#        132532
#        145293
#        160506
#        175146
#        189004
#        203302
#        215380
#        228480
#        239934
#        254348
#        267164
#        281102
#
# Disc length: 3947 seconds
#
# Revision: 8
# Processed by: cddbd v1.5.2PL0 Copyright (c) Steve Scherf et al.
# Submitted via: ExactAudioCopy v0.99pb4
#
DISCID=1b0f6914
DTITLE=Various Artist - The Great Women Blues Singers
DYEAR=1998
DGENRE=Blues
TTITLE0=Bessie Smith - St. Louis Blues
TTITLE1=Bessie Smith - Nobody's Blues But Mine
TTITLE2=Ma Rainey - Blues Oh Blues
TTITLE3=Ma Rainey - Oh Papa Blues
TTITLE4=Clara smith - Strugglin' Woman Blues
TTITLE5=Pearl Dickson - Little Rock Blues
TTITLE6=Sara Martin - Atlanta Blues
TTITLE7=Ruby Glaze - Lonesome Day Blues
TTITLE8=Mae Glover - I Ain't Givin' Nobody None
TTITLE9=Lottie Kimbrough - Rolling Log Blues
TTITLE10=Mattie Delaney - Down The Big Road Blues
TTITLE11=Elizabeth Johnson - Be My Kid Blues
TTITLE12=Victoria Spivey - Dirty TB Blues
TTITLE13=Victoria Spivey - Blood Hound Blues
TTITLE14=Ida Cox - Fogyism
TTITLE15=Hattie Hart - Papa's Got Your Bath Water On
TTITLE16=Memphis Minnie - He's In The Ring
TTITLE17=Memphis minnie - I'd Rather See Him Dead
TTITLE18=Rosetta Howard - Rosetta Blues
TTITLE19=Trixie Smith - Freight Train Blues
EXTD=
EXTT0=Bessie Smith\n
EXTT1=Bessie Smith\n
EXTT2=Ma Rainey\n
EXTT3=Ma Rainey\n
EXTT4=Clara Smith\n
EXTT5=Pearl Dickson\n
EXTT6=Sara Martin\n
EXTT7=Ruby Glaze\n
EXTT8=Mae Glover\n
EXTT9=Lottie Kimbrough\n
EXTT10=Mattie Delaney\n
EXTT11=Elizabeth Johnson\n
EXTT12=Victoria Spivey\n
EXTT13=Victoria Spivey\n
EXTT14=Ida Cox\n
EXTT15=Hattie Hart\n
EXTT16=Memphis Minnie\n
EXTT17=Memphis Minnie\n
EXTT18=Rosetta Howard\n
EXTT19=Trixie Smith\n
PLAYORDER=
